<svg width="261" height="190" viewBox="0 0 261 190" fill="none" xmlns="http://www.w3.org/2000/svg">
<path fill-rule="evenodd" clip-rule="evenodd" d="M237.078 103.802C247.246 83.6085 249.477 62.6517 241.56 44.329C222.94 1.23538 155.239 -10.9687 90.3451 17.0706C25.4511 45.1098 -12.0615 102.774 6.55827 145.868C25.1781 188.962 92.8793 201.166 157.773 173.126C183.279 162.106 204.555 146.509 219.855 129.019C234.958 132.122 248.293 134.605 254.903 134.605C265.972 134.605 254.055 120.588 237.078 103.802Z" fill="#151F3F"/>
<path d="M241.56 44.329L242.478 43.9324L241.56 44.329ZM237.078 103.802L236.184 103.353L235.857 104.002L236.374 104.513L237.078 103.802ZM90.3451 17.0706L90.7417 17.9885L90.3451 17.0706ZM6.55827 145.868L7.47624 145.471L6.55827 145.868ZM157.773 173.126L158.17 174.044L157.773 173.126ZM219.855 129.019L220.057 128.039L219.486 127.922L219.103 128.361L219.855 129.019ZM240.642 44.7257C248.412 62.7078 246.257 83.3483 236.184 103.353L237.971 104.252C248.235 83.8687 250.542 62.5956 242.478 43.9324L240.642 44.7257ZM90.7417 17.9885C123.033 4.036 155.983 0.115822 183.128 5.00911C210.282 9.90396 231.507 23.5829 240.642 44.7257L242.478 43.9324C232.994 21.9814 211.058 8.0116 183.483 3.04083C155.899 -1.93151 122.551 2.0659 89.9484 16.1526L90.7417 17.9885ZM7.47624 145.471C-1.65904 124.329 2.9265 99.4975 17.9722 76.3692C33.0132 53.2482 58.4499 31.9411 90.7417 17.9885L89.9484 16.1526C57.3462 30.2393 31.5797 51.784 16.2958 75.2785C1.01666 98.7657 -3.84421 124.314 5.64029 146.265L7.47624 145.471ZM157.377 172.208C125.085 186.161 92.1356 190.081 64.9904 185.188C37.8364 180.293 16.6115 166.614 7.47624 145.471L5.64029 146.265C15.1248 168.216 37.0604 182.185 64.6356 187.156C92.2194 192.128 125.568 188.131 158.17 174.044L157.377 172.208ZM219.103 128.361C203.908 145.73 182.757 161.242 157.377 172.208L158.17 174.044C183.801 162.97 205.202 147.288 220.608 129.677L219.103 128.361ZM254.903 133.605C248.419 133.605 235.203 131.152 220.057 128.039L219.654 129.998C234.712 133.093 248.167 135.605 254.903 135.605V133.605ZM236.374 104.513C244.871 112.914 252.022 120.547 255.674 126.051C256.583 127.421 257.256 128.63 257.678 129.663C258.106 130.711 258.242 131.493 258.181 132.043C258.127 132.531 257.921 132.861 257.5 133.111C257.022 133.395 256.206 133.605 254.903 133.605V135.605C256.367 135.605 257.6 135.378 258.522 134.83C259.502 134.248 260.049 133.351 260.169 132.263C260.282 131.236 260.014 130.092 259.529 128.907C259.039 127.707 258.291 126.377 257.341 124.945C253.558 119.245 246.261 111.476 237.781 103.091L236.374 104.513Z" fill="url(#paint0_linear_111_35618)"/>
<path d="M98.0112 75.4823L86.3836 83.9769L109.436 114.989L120.547 106.872L98.0112 75.4823ZM113.353 120.351L119.676 129.007L130.723 120.937L124.399 112.281L113.353 120.351ZM126.152 54.9243L114.524 63.4189L137.576 94.431L148.687 86.314L126.152 54.9243ZM141.493 99.7927L147.817 108.449L158.863 100.379L152.539 91.7228L141.493 99.7927Z" fill="white"/>
<defs>
<linearGradient id="paint0_linear_111_35618" x1="10.739" y1="14.1" x2="285.65" y2="83.6921" gradientUnits="userSpaceOnUse">
<stop stop-color="#313A65"/>
<stop offset="1" stop-color="#313A65" stop-opacity="0"/>
</linearGradient>
</defs>
</svg>
