<svg width="198" height="144" viewBox="0 0 198 144" fill="none" xmlns="http://www.w3.org/2000/svg">
<path fill-rule="evenodd" clip-rule="evenodd" d="M18.5335 79.0879C10.8336 63.7964 9.14433 47.9271 15.1392 34.0526C29.2388 1.42047 80.5047 -7.82087 129.645 13.4115C178.785 34.6438 207.191 78.3095 193.091 110.942C178.992 143.574 127.726 152.815 78.5856 131.583C59.2717 123.238 43.1607 111.427 31.5746 98.1828C20.1387 100.533 10.0407 102.413 5.03568 102.413C-3.34657 102.413 5.6777 91.7983 18.5335 79.0879Z" fill="#151F3F"/>
<path d="M15.1392 34.0526L14.2213 33.6559L15.1392 34.0526ZM18.5335 79.0879L19.4267 78.6381L19.7538 79.2877L19.2366 79.799L18.5335 79.0879ZM129.645 13.4115L129.248 14.3294L129.645 13.4115ZM193.091 110.942L192.173 110.545L193.091 110.942ZM78.5856 131.583L78.9823 130.665L78.5856 131.583ZM31.5746 98.1828L31.3734 97.2033L31.9438 97.0861L32.3273 97.5244L31.5746 98.1828ZM16.0572 34.4492C10.2094 47.9832 11.8222 63.5362 19.4267 78.6381L17.6404 79.5376C9.84497 64.0566 8.07922 47.871 14.2213 33.6559L16.0572 34.4492ZM129.248 14.3294C104.833 3.78034 79.9314 0.821213 59.4292 4.51699C38.9184 8.21434 22.9324 18.5373 16.0572 34.4492L14.2213 33.6559C21.4456 16.9358 38.1424 6.32198 59.0744 2.54872C80.0151 -1.22612 105.316 1.81024 130.041 12.4935L129.248 14.3294ZM192.173 110.545C199.048 94.633 195.609 75.917 184.245 58.4469C172.885 40.9842 153.663 24.8785 129.248 14.3294L130.041 12.4935C154.767 23.1767 174.318 39.5201 185.921 57.3563C197.519 75.1851 201.234 94.6181 194.009 111.338L192.173 110.545ZM78.9823 130.665C103.397 141.214 128.299 144.173 148.801 140.477C169.312 136.78 185.298 126.457 192.173 110.545L194.009 111.338C186.785 128.058 170.088 138.672 149.156 142.445C128.215 146.22 102.914 143.184 78.189 132.501L78.9823 130.665ZM32.3273 97.5244C43.808 110.648 59.7941 122.374 78.9823 130.665L78.189 132.501C58.7493 124.101 42.5134 112.206 30.822 98.8412L32.3273 97.5244ZM5.03568 101.413C9.91438 101.413 19.8934 99.5621 31.3734 97.2033L31.7759 99.1623C20.384 101.503 10.167 103.413 5.03568 103.413V101.413ZM19.2366 79.799C12.8009 86.1619 7.40369 91.9255 4.65355 96.0698C3.97011 97.0997 3.47029 98.0003 3.15884 98.7625C2.84148 99.5391 2.75496 100.088 2.79456 100.446C2.82729 100.742 2.94173 100.923 3.1925 101.072C3.50092 101.256 4.06851 101.413 5.03568 101.413V103.413C3.90729 103.413 2.92326 103.239 2.17099 102.792C1.36108 102.311 0.905777 101.563 0.806656 100.666C0.714386 99.8304 0.933914 98.92 1.30746 98.0059C1.68694 97.0773 2.26289 96.0553 2.98709 94.9639C5.86749 90.6233 11.4103 84.7243 17.8304 78.3767L19.2366 79.799Z" fill="url(#paint0_linear_111_35613)"/>
<path d="M98.1991 44.4339C87.6881 38.7781 78.4386 40.7055 73.1013 50.6247C66.6571 62.601 70.9267 69.6587 88.2853 78.999L90.7354 75.1209C78.4491 68.5099 72.2188 63.8131 77.92 53.2175C82.3779 44.9327 89.465 44.9306 96.3126 48.6152C99.8069 50.4953 104.747 53.8077 102.38 59.2202C101.668 56.6933 99.6585 54.4854 96.303 52.7526C91.1852 50.1078 85.7558 49.2577 82.2684 55.739C78.7658 62.2485 82.406 66.4238 87.5086 69.0967C90.8772 70.8729 93.8552 71.3489 96.3712 70.5224L95.1278 72.8331L99.9747 75.4411L106.207 63.8593C110.528 55.8281 108.541 49.9986 98.1991 44.4339ZM91.0013 65.7797C86.9153 63.5811 85.495 61.2907 87.0871 58.3318C88.6792 55.373 91.3731 55.2963 95.4592 57.4949C99.348 59.5874 100.801 61.7499 99.603 64.4486L99.1026 65.3785C97.4952 67.8931 94.8901 67.8722 91.0013 65.7797ZM135.774 64.6519C125.263 58.9962 116.013 60.9235 110.676 70.8427C104.232 82.8191 108.501 89.8767 125.86 99.217L128.31 95.3389C116.024 88.728 109.793 84.0311 115.495 73.4356C119.953 65.1507 127.04 65.1486 133.887 68.8332C137.382 70.7134 142.322 74.0257 139.955 79.4382C139.243 76.9113 137.233 74.7034 133.878 72.9706C128.76 70.3258 123.33 69.4757 119.843 75.957C116.34 82.4665 119.981 86.6418 125.083 89.3148C128.452 91.0909 131.43 91.5669 133.946 90.7404L132.702 93.0511L137.549 95.6591L143.781 84.0773C148.103 76.0461 146.116 70.2166 135.774 64.6519ZM128.576 85.9977C124.49 83.7991 123.07 81.5087 124.662 78.5498C126.254 75.591 128.948 75.5143 133.034 77.7129C136.923 79.8054 138.375 81.9679 137.178 84.6666L136.677 85.5965C135.07 88.1111 132.465 88.0902 128.576 85.9977Z" fill="white"/>
<defs>
<linearGradient id="paint0_linear_111_35613" x1="189.925" y1="11.1621" x2="-18.2475" y2="63.8597" gradientUnits="userSpaceOnUse">
<stop stop-color="#313A65"/>
<stop offset="1" stop-color="#313A65" stop-opacity="0"/>
</linearGradient>
</defs>
</svg>
