<svg width="104" height="48" viewBox="0 0 104 48" fill="none" xmlns="http://www.w3.org/2000/svg">
<g filter="url(#filter0_d_111_35876)">
<path d="M12.7156 33.0216H23.5731C23.3523 32.2791 23.2319 31.5164 23.2319 30.7137C23.2319 26.3386 26.7641 22.8064 31.1391 22.8064C35.5142 22.8064 39.0464 26.3386 39.0464 30.7137C39.0464 31.5365 38.926 32.3393 38.6852 33.0818L72.4014 33.2825C72.1405 32.4797 71.98 31.6168 71.98 30.7137C71.98 26.3386 75.5122 22.8064 79.8872 22.8064C84.2623 22.8064 87.7945 26.3386 87.7945 30.7137C87.7945 31.6168 87.634 32.4597 87.3731 33.2624L89.4 32.7206C91.0056 32.2991 91.6077 31.5164 91.6077 31.5164C91.6077 31.5164 93.2132 29.5095 93.9156 25.315C94.618 21.1206 90.7045 19.4147 90.7045 19.4147C90.7045 19.4147 86.9917 18.351 83.6402 17.1669C82.4962 16.6853 81.6734 14.1566 83.881 13.0126C86.189 11.8085 86.7308 12.1095 86.5301 11.6078C86.3358 11.1218 85.6707 10.5417 85.6291 10.5057C85.7095 10.5045 85.7892 10.504 85.8679 10.504H85.627C85.627 10.504 85.6277 10.5046 85.6291 10.5057C83.8632 10.5319 81.695 10.8575 79.9675 12.0092C78.1814 13.2133 75.0706 13.7752 75.0706 13.7752C73.7461 13.5143 72.3011 13.414 70.4748 13.414C67.4042 13.414 61.544 19.1538 56.3661 19.9164C53.6568 20.3178 40.4513 20.3178 37.9426 19.6154C35.4339 18.913 30.8381 18.7123 27.326 19.515C27.0249 19.5752 17.0104 21.823 14.7225 24.9137C12.8962 27.342 10.7087 30.4126 10.7087 30.4126L12.7156 33.0216Z" fill="white"/>
<path d="M73.2845 30.7137C73.2845 27.0611 76.2346 24.1109 79.8872 24.1109C83.5398 24.1109 86.49 27.0611 86.49 30.7137C86.49 34.3663 83.5398 37.3164 79.8872 37.3164C76.2346 37.3164 73.2845 34.3663 73.2845 30.7137Z" fill="white"/>
<path d="M24.5364 30.7137C24.5364 27.0611 27.4865 24.1109 31.1391 24.1109C34.7917 24.1109 37.7419 27.0611 37.7419 30.7137C37.7419 34.3663 34.7917 37.3164 31.1391 37.3164C27.4865 37.3164 24.5364 34.3663 24.5364 30.7137Z" fill="white"/>
<path d="M54.8007 18.8528C61.1025 18.05 66.6817 12.6112 66.6817 12.6112C45.0672 10.6043 38.7654 18.6119 38.7654 18.6119C38.7654 18.6119 48.499 19.6555 54.8007 18.8528Z" fill="white"/>
</g>
<defs>
<filter id="filter0_d_111_35876" x="0.70874" y="0.503967" width="103.291" height="46.8124" filterUnits="userSpaceOnUse" color-interpolation-filters="sRGB">
<feFlood flood-opacity="0" result="BackgroundImageFix"/>
<feColorMatrix in="SourceAlpha" type="matrix" values="0 0 0 0 0 0 0 0 0 0 0 0 0 0 0 0 0 0 127 0" result="hardAlpha"/>
<feOffset/>
<feGaussianBlur stdDeviation="5"/>
<feComposite in2="hardAlpha" operator="out"/>
<feColorMatrix type="matrix" values="0 0 0 0 1 0 0 0 0 1 0 0 0 0 1 0 0 0 0.6 0"/>
<feBlend mode="normal" in2="BackgroundImageFix" result="effect1_dropShadow_111_35876"/>
<feBlend mode="normal" in="SourceGraphic" in2="effect1_dropShadow_111_35876" result="shape"/>
</filter>
</defs>
</svg>
