<svg width="56" height="61" viewBox="0 0 56 61" fill="none" xmlns="http://www.w3.org/2000/svg">
<path d="M1.60002 0.316406C0.87815 0.316406 0.400024 0.794532 0.400024 1.51641V59.1164C0.400024 59.8383 0.87815 60.3164 1.60002 60.3164H6.40002C7.1219 60.3164 7.60002 59.8383 7.60002 59.1164V38.7164H54.4C55.061 38.7164 55.6 38.1773 55.6 37.5164V1.51641C55.6 0.855469 55.061 0.316406 54.4 0.316406H1.60002ZM7.60002 2.71641H18.4V13.5164H30.4V2.71641H42.4V13.5164H53.2V25.5164H42.4V36.3164H30.4V25.5164H18.4V36.3164H7.60002V25.5164H18.4V13.5164H7.60002V2.71641ZM30.4 25.5164H42.4V13.5164H30.4V25.5164Z" fill="white"/>
</svg>
