<svg width="531" height="284" viewBox="0 0 531 284" fill="none" xmlns="http://www.w3.org/2000/svg">
<g filter="url(#filter0_d_111_35602)">
<path fill-rule="evenodd" clip-rule="evenodd" d="M415.578 15.5962C458.23 4.80582 501.093 32.4144 508.907 75.7098C515.68 113.231 493.626 149.284 458.545 161.111C462.378 169.445 468.226 178.923 473.269 187.096C476.301 192.01 479.041 196.452 480.878 199.89C484.537 206.738 471.563 200.292 453.24 191.189C439.725 184.475 423.301 176.314 408.495 170.977L90.1433 228.436C55.3338 234.719 22.1248 211.273 16.3937 176.369C11.0639 143.909 31.4696 112.772 63.3592 104.704L415.578 15.5962Z" fill="#55FFAD"/>
</g>
<path d="M84.7083 164.852C83.0601 163.968 79.9461 163.144 77.4764 162.784L76.3399 165.273C78.8761 165.741 82.027 166.721 83.6363 167.614L84.7083 164.852ZM85.0232 186.647C85.8481 182.67 86.6688 177.46 87.1495 173.071L84.4933 172.097C83.9307 176.834 82.893 182.342 82.0464 185.708L85.0232 186.647ZM75.5505 154.485C77.9884 155.058 81.0983 156.212 82.6482 157.201L83.8165 154.499C82.1888 153.528 79.1546 152.521 76.7352 152.025L75.5505 154.485ZM92.8313 154.376L101.199 152.393L101.974 155.662L93.6062 157.646L92.8313 154.376ZM105.406 157.48L104.041 151.72L110.268 150.244L109.659 147.675L103.432 149.151L102.556 145.453L99.7143 146.127L100.591 149.824L92.2225 151.808L91.3461 148.11L88.5827 148.765L89.459 152.463L83.6597 153.837L84.2685 156.406L90.0679 155.031L91.4332 160.792L96.96 159.482L97.615 162.245L87.184 164.718L92.0824 185.385L94.6123 184.785L90.3043 166.609L98.2054 164.736L100.936 176.257C98.8954 174.932 97.1587 171.767 96.0067 167.601L92.3091 168.477L92.7796 170.462L94.9981 169.936C95.157 170.433 95.3158 170.93 95.5044 171.378L94.8427 171.535C95.133 173.974 94.8169 176.803 93.2992 178.725C93.7438 178.866 94.5049 179.302 94.8696 179.627C96.0534 178.031 96.5724 176.058 96.695 173.974C97.6715 175.839 98.8671 177.241 100.176 178.082C100.318 177.637 100.713 177.05 101.028 176.646L102.43 182.562L105.038 181.944L100.813 164.118L109.103 162.153L111.834 173.674C109.578 172.482 107.656 169.403 106.438 165.128L102.74 166.005L103.211 167.99L105.429 167.464C105.588 167.961 105.777 168.409 105.926 168.867L105.303 169.015C105.575 171.376 105.232 174.088 103.656 175.941C104.149 176.112 104.91 176.548 105.236 176.882C106.429 175.325 106.996 173.382 107.137 171.375C108.201 173.261 109.465 174.606 110.852 175.428C111.023 174.935 111.526 174.282 111.88 173.869L112.757 177.566C112.867 178.033 112.73 178.148 112.263 178.259C111.805 178.408 110.287 178.768 108.643 179.117C109.111 179.705 109.635 180.526 109.909 181.16C112.283 180.597 113.83 180.189 114.682 179.618C115.523 179.007 115.639 178.281 115.325 176.958L111.082 159.054L100.223 161.627L99.5678 158.864L105.406 157.48ZM121.225 146.002L141.854 141.113L143.662 148.742L123.034 153.631L121.225 146.002ZM137.383 162.316L150.422 159.225L149.786 156.54L136.747 159.63L135.326 153.636L147.314 150.795L144.187 137.6L117.72 143.873L120.847 157.068L132.407 154.328L136.143 170.091C132.617 169.612 129.612 167.857 127.086 164.14C127.127 162.403 127.051 160.695 126.906 159.044L123.748 159.422C124.523 165.117 124.204 172.099 120.451 176.729C121.127 176.98 122.331 177.723 122.936 178.196C125.192 175.4 126.352 171.795 126.816 168.027C132.109 173.884 138.415 173.952 146.666 171.996L155.229 169.966C155.191 169.112 155.353 167.717 155.615 166.915C153.99 167.341 147.373 168.91 146.167 169.196C143.715 169.777 141.42 170.156 139.256 170.217L137.383 162.316ZM186.952 131.411L186.27 128.531L153.03 136.409L153.713 139.289L170.916 135.212C168.641 142.781 163.516 150.819 156.762 156.49C157.503 157.013 158.704 157.92 159.308 158.558C164.044 154.435 167.843 149.3 170.713 143.893L175.842 165.533L178.917 164.804L172.865 139.272C173.497 137.601 174.099 135.978 174.614 134.335L186.952 131.411ZM174.612 143.174C179.925 145.121 186.774 148.349 190.238 150.652L192.009 147.889C188.466 145.604 181.517 142.647 176.31 140.798L174.612 143.174ZM221.512 120.26L220.858 120.621L193.068 127.207L193.741 130.049L218.768 124.117C216.503 127.572 213.058 131.595 209.755 134.31L214.082 152.565C214.248 153.265 214.061 153.515 213.252 153.748C212.366 153.999 209.379 154.748 206.121 155.397C206.772 156.065 207.621 157.22 207.971 158C211.902 157.069 214.462 156.421 215.83 155.603C217.246 154.815 217.549 153.839 217.079 151.854L213.094 135.04C217.302 131.288 221.636 125.986 224.166 121.399L221.512 120.26ZM256.171 127.913L257.915 135.269L247.717 137.686L245.974 130.33L256.171 127.913ZM261.23 137.115L258.315 124.815L242.707 128.515L246.286 143.616L248.972 142.98L248.308 140.177L261.23 137.115ZM258.819 117.749L239.202 122.398L239.802 124.928L259.418 120.279L258.819 117.749ZM263.315 109.489L231.399 117.054L239.369 150.682L242.172 150.018L234.856 119.153L261.129 112.926L267.558 140.054C267.706 140.677 267.528 140.966 266.836 141.171C266.184 141.367 263.927 141.902 261.456 142.405C262.108 143.073 262.87 144.208 263.18 144.997C266.528 144.204 268.455 143.665 269.551 142.912C270.599 142.129 270.824 141.171 270.4 139.381L263.315 109.489ZM302.928 126.944L293.587 129.158L292.895 126.239L302.236 124.025L302.928 126.944ZM291.705 121.218L301.046 119.004L301.692 121.728L292.351 123.942L291.705 121.218ZM278.824 116.995L278.16 114.192L286.528 112.209L287.192 115.011L278.824 116.995ZM298.127 109.46L298.791 112.262L290.072 114.329L289.408 111.526L298.127 109.46ZM308.581 120.096L304.572 121.046L303.419 116.181L291.198 119.077L290.552 116.353L302.151 113.604L300.527 106.753L288.929 109.502L288.393 107.245L303.884 103.573L303.322 101.199L287.831 104.871L287.093 101.757L284.213 102.44L284.951 105.553L269.771 109.151L270.334 111.525L285.513 107.928L286.048 110.185L274.917 112.823L276.54 119.674L287.672 117.035L288.318 119.76L276.096 122.656L276.604 124.797L288.825 121.901L289.471 124.625L273.552 128.398L274.096 130.694L290.015 126.921L290.707 129.841L278.135 132.82L278.661 135.039L291.233 132.059L291.869 134.745C292.026 135.406 291.848 135.695 291.118 135.909C290.456 136.066 288.13 136.659 285.776 137.134C286.322 137.704 287.038 138.644 287.369 139.347C290.6 138.581 292.614 138.062 293.719 137.348C294.786 136.643 295.174 135.852 294.749 134.062L294.113 131.376L303.454 129.162L303.869 130.914L306.749 130.231L305.117 123.342L309.126 122.392L308.581 120.096ZM323.566 110.994L315.393 112.932L313.465 104.797L321.638 102.86L323.566 110.994ZM318.216 124.842L316.002 115.5L324.175 113.563L326.389 122.904L318.216 124.842ZM314.622 95.109C314.783 97.0029 314.7 99.7767 314.559 101.783L310.2 102.817L316.916 131.152L319.562 130.524L318.834 127.449L329.654 124.885L323.667 99.6247L317.206 101.156C317.471 99.3256 317.664 97.0189 317.874 94.9549L314.622 95.109ZM342.672 94.997L331.034 97.7553C331.262 95.7691 331.365 93.7717 331.38 91.7538L328.459 91.7471C328.478 97.3746 327.649 103.244 325.853 107.287C326.568 107.529 327.998 108.012 328.615 108.359C329.543 106.207 330.187 103.547 330.659 100.681L340.545 98.3376C343.711 113.948 344.529 120.003 343.567 121.67C343.298 122.268 342.888 122.447 342.11 122.632C341.215 122.844 338.879 123.397 336.294 123.763C337.033 124.452 337.66 125.536 337.941 126.374C340.148 125.974 342.385 125.526 343.71 125.048C345.006 124.617 345.818 124.055 346.416 122.762C347.521 120.486 346.606 114.372 343.023 96.476L342.672 94.997ZM340.674 113.969C338.884 111.968 335.313 108.868 332.478 106.621L330.534 108.48C333.339 110.775 336.86 114.01 338.581 116.068L340.674 113.969ZM351.251 87.6607C352.543 89.1221 353.809 91.1654 354.315 92.6075L356.39 91.1291C355.854 89.7351 354.501 87.6714 353.159 86.3452L351.251 87.6607ZM362.644 90.6334L347.309 94.268L347.881 96.6811L363.216 93.0465L362.644 90.6334ZM362.75 109.641L364.291 116.141L357.48 117.756L355.939 111.256L362.75 109.641ZM364.796 106.649L352.808 109.49L355.898 122.529L358.467 121.92L358.042 120.13L367.462 117.897L364.796 106.649ZM352.155 106.562L364.22 103.702L363.667 101.367L351.601 104.227L352.155 106.562ZM350.384 99.0889L350.928 101.385L362.994 98.5255L362.449 96.2291L350.384 99.0889ZM385.62 96.8626L376.901 98.9289L374.761 89.8991L382.662 88.0264L382.026 85.3408L368.325 88.588C368.513 86.776 368.633 84.8564 368.637 82.9646L365.618 83.0634C365.698 88.4296 364.855 93.8913 362.818 97.786C363.68 97.9518 365.119 98.474 365.775 98.8119C366.712 96.6986 367.441 94.2238 367.911 91.5227L371.881 90.5817L374.021 99.6116L365.03 101.743L365.685 104.506L374.676 102.375L378.292 117.632L381.173 116.95L377.556 101.692L386.275 99.626L385.62 96.8626ZM419.799 85.1443L410.73 87.2937L409.844 83.5572L418.913 81.4078L419.799 85.1443ZM421.201 91.0604L412.132 93.2098L411.228 89.3954L420.297 87.246L421.201 91.0604ZM422.622 97.0543L413.553 99.2037L412.64 95.3505L421.708 93.2011L422.622 97.0543ZM406.818 81.8901L411.597 102.052L425.725 98.7029L420.947 78.5415L414.175 80.1466C414.209 78.9052 414.207 77.508 414.214 76.1498L421.103 74.517L420.513 72.026L404.049 75.9281L404.639 78.4191L411.334 76.8325C411.464 78.0759 411.563 79.5325 411.606 80.7555L406.818 81.8901ZM397.347 101.072C397.468 103.838 397.248 106.727 396.494 108.92C397.181 109.045 398.322 109.35 398.833 109.599C399.521 107.298 399.862 104.052 399.745 100.955L397.347 101.072ZM397.381 92.7184L404.076 91.1317L404.989 94.985L398.295 96.5717L397.381 92.7184ZM395.998 86.8802L402.692 85.2935L403.587 89.0689L396.892 90.6556L395.998 86.8802ZM407.919 96.5927L404.598 82.5808L399.266 83.8447C399.3 82.6032 399.328 81.1579 399.364 79.7516L403.84 78.6907L403.231 76.1219L387.118 79.941L390.494 94.1863C391.758 99.5186 393.233 106.61 392.234 112.108C392.796 112.222 394.109 112.733 394.648 113.098C395.854 107.263 394.362 99.2304 393.024 93.5867L390.257 81.9102L396.562 80.4157C396.692 81.6592 396.761 83.1639 396.813 84.4258L393.155 85.293L396.476 99.3048L400.913 98.2532L403.413 108.801C403.496 109.151 403.398 109.257 403.047 109.34C402.628 109.48 401.5 109.748 400.089 110.041C400.596 110.62 401.177 111.51 401.442 112.105C403.349 111.653 404.585 111.318 405.358 110.765C406.035 110.153 406.112 109.436 405.835 108.268L403.326 97.6812L407.919 96.5927ZM411.016 104.286C410.258 102.821 408.58 100.423 407.175 98.6598L405.347 99.792C406.722 101.604 408.371 104.049 409.118 105.64L411.016 104.286ZM415.03 102.142C414.007 104.07 411.666 106.68 409.472 108.351C410.176 108.719 411.226 109.333 411.774 109.738C413.92 108.037 416.398 105.312 417.776 102.971L415.03 102.142ZM420.461 102.335C422.758 103.353 425.649 104.97 427.148 106.094L428.968 104.059C427.43 102.944 424.479 101.424 422.279 100.465L420.461 102.335ZM444.795 88.798L447.987 88.0416C445.552 82.4524 454.569 79.0411 453.176 73.1639C452.115 68.6879 447.948 66.7158 442.46 68.0165C438.217 69.022 435.606 71.5319 433.682 74.8653L436.245 76.3132C437.862 73.4224 440.116 71.6552 442.762 71.0279C446.732 70.0869 449.14 71.5718 449.776 74.2574C450.828 78.6945 442.057 82.623 444.795 88.798ZM444.866 95.6874C445.309 97.5557 447.035 98.4209 448.747 98.015C450.46 97.6091 451.575 96.0705 451.132 94.2022C450.69 92.334 449.012 91.4984 447.299 91.9043C445.587 92.3102 444.423 93.8192 444.866 95.6874Z" fill="#06102B"/>
<defs>
<filter id="filter0_d_111_35602" x="5.54932" y="3.25488" width="514.578" height="236.2" filterUnits="userSpaceOnUse" color-interpolation-filters="sRGB">
<feFlood flood-opacity="0" result="BackgroundImageFix"/>
<feColorMatrix in="SourceAlpha" type="matrix" values="0 0 0 0 0 0 0 0 0 0 0 0 0 0 0 0 0 0 127 0" result="hardAlpha"/>
<feOffset/>
<feGaussianBlur stdDeviation="5"/>
<feComposite in2="hardAlpha" operator="out"/>
<feColorMatrix type="matrix" values="0 0 0 0 0.333333 0 0 0 0 1 0 0 0 0 0.68 0 0 0 0.6 0"/>
<feBlend mode="normal" in2="BackgroundImageFix" result="effect1_dropShadow_111_35602"/>
<feBlend mode="normal" in="SourceGraphic" in2="effect1_dropShadow_111_35602" result="shape"/>
</filter>
</defs>
</svg>
