<svg width="561" height="244" viewBox="0 0 561 244" fill="none" xmlns="http://www.w3.org/2000/svg">
<g filter="url(#filter0_d_111_35597)">
<path fill-rule="evenodd" clip-rule="evenodd" d="M85.9074 35.0104C41.7754 35.4155 7.16671 73.0248 10.4239 117.038C13.2455 155.165 43.5896 184.677 80.5663 187.565C78.9427 196.639 75.642 207.345 72.7966 216.575C71.0897 222.111 69.5467 227.116 68.6278 230.919C66.7976 238.492 77.7483 228.976 93.2134 215.537C104.62 205.625 118.482 193.579 131.484 184.681L491.317 158.052C526.68 155.435 553.034 124.34 549.818 89.0264C546.822 56.1286 519.085 31.0341 486.052 31.3374L85.9074 35.0104Z" fill="#9DA4FF"/>
</g>
<path d="M48.0552 123.44L47.8841 120.525L52.9155 120.23L53.0865 123.144L48.0552 123.44ZM47.6005 115.693L52.6318 115.398L52.8006 118.273L47.7693 118.568L47.6005 115.693ZM60.5382 114.934L60.707 117.809L55.476 118.116L55.3072 115.241L60.5382 114.934ZM60.9929 122.68L55.7619 122.987L55.5908 120.072L60.8218 119.765L60.9929 122.68ZM70.7823 109.925C70.6981 107.125 70.5247 104.17 70.3489 101.175L67.5537 101.339C67.7318 104.374 67.9029 107.289 67.9872 110.089L63.2353 110.368L63.3994 113.163L68.0714 112.889C68.1526 120.417 67.4918 126.907 64.2943 131.823L64.2826 131.623C61.6259 132.1 58.927 132.538 56.3456 132.93L56.1604 129.776L63.9869 129.316L63.8533 127.04L56.0268 127.5L55.8838 125.064L63.6305 124.609L62.9344 112.75L55.1877 113.204L55.04 110.689L63.5055 110.192L63.3695 107.876L54.9041 108.373L54.733 105.458C57.6292 104.967 60.3235 104.448 62.4516 103.843L60.8406 101.653C56.7816 102.813 49.6361 103.954 43.745 104.62C44.0997 105.2 44.4354 106.142 44.5927 106.774C46.944 106.556 49.5301 106.244 52.074 105.894L52.2287 108.53L43.6036 109.036L43.7395 111.352L52.3647 110.846L52.5123 113.361L45.0452 113.8L45.7413 125.659L53.2084 125.221L53.3514 127.657L45.8044 128.1L45.938 130.376L53.485 129.933L53.6866 133.367C50.431 133.879 47.4525 134.334 45.0684 134.674L45.66 137.244C50.1041 136.502 56.2536 135.46 62.281 134.385C61.7501 134.897 61.2192 135.409 60.6061 135.886C61.3529 136.323 62.4498 137.26 62.9265 137.873C69.645 132.19 70.9709 123.377 70.8266 112.727L76.5368 112.392C76.9883 126.91 76.8185 132.209 75.968 133.421C75.5992 133.964 75.2469 134.105 74.568 134.145C73.8093 134.189 72.05 134.252 70.1239 134.205C70.6077 134.938 70.9998 136.157 71.1266 136.951C72.9704 136.963 74.8495 136.893 75.9582 136.668C77.1491 136.477 77.929 136.111 78.5469 135.033C79.8061 133.276 79.8397 127.705 79.2969 110.948C79.2735 110.548 79.2478 109.428 79.2478 109.428L70.7823 109.925ZM85.57 135.222L121.189 133.131L121.065 131.015L85.4458 133.105L85.57 135.222ZM113.284 124.059L104.02 124.603L103.9 122.566L113.164 122.022L113.284 124.059ZM113.506 127.852L104.242 128.396L104.118 126.28L113.382 125.736L113.506 127.852ZM92.4979 126.962L101.363 126.441L101.487 128.558L92.6222 129.078L92.4979 126.962ZM92.28 123.248L101.145 122.728L101.264 124.764L92.3995 125.285L92.28 123.248ZM89.3441 121.697L89.8878 130.962L116.602 129.394L116.058 120.129L89.3441 121.697ZM103.066 106.988L112.21 106.451L112.339 108.648L103.195 109.184L103.066 106.988ZM102.836 103.075L111.98 102.538L112.1 104.575L102.956 105.111L102.836 103.075ZM103.654 117.011L103.532 114.934L117.189 114.133L117.078 112.256L103.422 113.058L103.302 111.021L115.402 110.311L115.165 106.278L119.477 106.025L119.367 104.148L115.055 104.401L114.827 100.528L102.728 101.238L102.583 98.7623L99.628 98.9358L99.7733 101.412L87.9137 102.108L88.0215 103.944L99.8811 103.248L100.001 105.285L83.9483 106.227L84.0584 108.104L100.111 107.162L100.24 109.358L88.1406 110.068L88.2484 111.905L100.348 111.195L100.467 113.231L87.4096 113.998L87.5197 115.874L100.577 115.108L100.699 117.184L84.5669 118.131L84.6888 120.208L120.307 118.117L120.186 116.041L103.654 117.011ZM136.83 114.262C135.378 114.788 133.887 115.317 132.473 115.8L132.009 107.894L136.441 107.634L136.277 104.838L131.844 105.099L131.376 97.1124L128.461 97.2835L128.929 105.27L123.818 105.57L123.982 108.365L129.094 108.065L129.605 116.77C127.523 117.493 125.635 118.085 124.059 118.538L125.068 121.404L129.778 119.725L130.39 130.147C130.422 130.706 130.235 130.917 129.636 130.952C129.159 131.021 127.442 131.121 125.523 131.194C125.969 131.969 126.476 133.101 126.64 133.853C129.358 133.734 131.03 133.555 132.001 133.017C133.011 132.477 133.403 131.653 133.305 129.976L132.641 118.675C134.171 118.105 135.78 117.529 137.349 116.956L136.83 114.262ZM154.616 113.499C153.392 117.217 151.336 120.423 148.726 123.06C146.06 120.652 143.879 117.615 142.317 114.221L154.616 113.499ZM156.324 110.514L155.852 110.661L149.503 111.034L149.153 105.084L158.697 104.524L158.535 101.769L148.992 102.329L148.624 96.0599L145.709 96.231L146.077 102.5L136.733 103.049L136.894 105.804L146.238 105.255L146.588 111.205L138.042 111.707L138.204 114.462L139.522 114.385L139.404 114.432C141.212 118.613 143.624 122.158 146.595 124.988C143.499 127.534 139.884 129.429 136.072 130.695C136.668 131.301 137.46 132.497 137.826 133.277C141.824 131.76 145.589 129.695 148.831 126.901C151.938 129.323 155.605 131.031 159.833 132.065C160.225 131.241 160.996 130.033 161.599 129.397C157.543 128.553 154.008 127.038 150.995 124.85C154.394 121.325 156.974 116.806 158.33 111.237L156.324 110.514ZM196.114 110.542C197.551 110.458 198.984 110.293 199.654 110.094C199.494 109.422 199.309 108.311 199.182 107.517C198.435 107.761 196.84 107.895 195.882 107.951L188.534 108.382C187.256 108.457 186.909 107.997 186.825 106.56L186.56 102.047L197.301 101.417L197.147 98.7813L186.405 99.4118L186.082 93.9013L183.167 94.0724L183.905 106.651C184.102 110.005 185.133 111.187 188.647 110.98L196.114 110.542ZM169.949 115.323C172.183 116.515 175.046 118.19 176.511 119.266L178.012 117.535C176.509 116.501 173.609 114.868 171.42 113.755L169.949 115.323ZM169.409 111.589L177.675 111.103L178.149 119.17C175.048 120.954 171.987 122.737 169.809 123.866C169.946 122.095 169.923 120.334 169.834 118.816L169.409 111.589ZM180.36 108.381L166.504 109.195L167.076 118.938C167.275 122.332 167.282 126.539 165.184 129.707C165.806 130.072 166.905 131.049 167.342 131.664C168.897 129.489 169.534 126.687 169.779 124.028L170.958 126.363C173.119 124.954 175.743 123.238 178.287 121.526L178.648 127.675C178.678 128.194 178.568 128.361 178.009 128.394C177.49 128.424 175.855 128.56 173.933 128.593C174.375 129.288 174.833 130.263 175.037 131.012C177.513 130.867 179.267 130.724 180.24 130.226C181.292 129.723 181.572 129.026 181.483 127.509L180.36 108.381ZM174.804 98.3698C175.715 99.5585 176.633 100.867 177.512 102.178L169.359 103.217C171.193 101.026 172.953 98.238 174.478 95.5441L171.464 94.7192C169.977 98.0521 167.531 101.441 166.822 102.324C166.073 103.21 165.429 103.849 164.797 104.006C165.199 104.704 165.725 106.155 165.919 106.745C166.812 106.252 168.2 106.01 178.97 104.496C179.548 105.464 180.041 106.357 180.407 107.137L182.895 105.829C181.758 103.531 179.262 99.9112 177.146 97.3108L174.804 98.3698ZM190.282 127.232C188.405 127.343 188.032 127.124 187.954 125.806L187.603 119.817L198.783 119.16L198.626 116.485L187.446 117.141L187.167 112.389L184.252 112.561L185.039 125.977C185.231 129.252 186.284 130.112 190.157 129.884L197.225 129.469C200.539 129.275 201.338 127.866 201.393 122.654C200.582 122.501 199.398 122.13 198.692 121.69C198.743 125.975 198.508 126.75 196.831 126.848L190.282 127.232ZM220.405 101.824L215.533 102.11L215.676 104.545L227.975 103.824L227.832 101.388L223 101.671L222.796 98.1974L228.546 97.8599L228.403 95.424L222.653 95.7616L222.419 91.7684L219.823 91.9208L220.058 95.9139L214.348 96.2491L214.491 98.6849L220.201 98.3497L220.405 101.824ZM225.583 112.899L219.074 113.281L218.804 108.689L225.313 108.307L225.583 112.899ZM227.782 105.999L216.202 106.678L216.727 115.623L228.307 114.943L227.782 105.999ZM221.786 122.619C221.492 121.033 220.537 118.405 219.618 116.415L217.338 117.15C218.218 119.182 219.056 121.857 219.312 123.485L221.786 122.619ZM215.807 112.912C215.184 111.867 212.453 107.66 211.408 106.238L211.263 103.763L214.856 103.552L214.697 100.836L211.103 101.047L210.597 92.4223L208.001 92.5746L208.508 101.2L203.796 101.476L203.955 104.192L208.428 103.929C207.748 109.418 206.004 115.892 204.045 119.373C204.559 119.943 205.301 120.982 205.623 121.684C206.993 119.079 208.196 115.002 209.07 110.783L210.139 128.992L212.735 128.84L211.61 109.673C212.683 111.573 213.904 113.945 214.458 115.195L215.807 112.912ZM226.213 122.96C226.864 121.078 227.562 118.633 228.152 116.395L225.397 115.875C225.082 118.018 224.269 121.231 223.585 123.234L224.235 123.396C220.752 124.122 217.546 124.791 215.168 125.251L216.042 127.844C220.035 126.929 225.574 125.722 230.831 124.492L230.526 122.025L226.213 122.96ZM234.423 116.067C234.041 113.645 232.764 109.633 231.42 106.546L229.219 107.277C230.525 110.405 231.69 114.544 232.077 117.046L234.423 116.067ZM239.837 99.7615L237.401 99.9045L236.879 90.9998L234.124 91.1615L234.646 100.066L228.657 100.418L228.816 103.133L234.806 102.782L236.053 124.025C236.085 124.584 235.895 124.755 235.418 124.824C234.862 124.896 233.224 124.992 231.423 125.018C231.867 125.753 232.343 127.048 232.505 127.759C234.981 127.614 236.613 127.438 237.624 126.898C238.554 126.362 238.904 125.5 238.808 123.863L237.561 102.62L239.997 102.477L239.837 99.7615ZM279.357 102.01L279.181 99.0149L262.65 99.9852C262.866 96.166 262.693 92.5299 262.55 89.4129L259.395 89.598C259.534 92.6352 259.789 96.3065 259.575 100.166L244.201 101.068L244.377 104.063L259.271 103.189C258.298 111.179 254.901 119.513 244.659 124.562C245.532 125.111 246.514 126.136 246.998 126.869C251.548 124.518 254.78 121.563 257.109 118.221C259.92 120.38 263.262 123.39 264.861 125.379L267.262 123.275C265.498 121.215 261.914 118.18 259.028 116.105L257.917 116.972C260.299 113.186 261.54 109.066 262.179 104.941C265.781 114.427 271.335 121.674 279.507 125.041C279.977 124.171 280.862 122.877 281.583 122.194C273.438 119.266 267.762 111.986 264.502 102.882L279.357 102.01ZM314.779 92.4777C314.251 90.9861 312.915 88.7005 311.694 87.0091L309.192 88.0776C310.338 89.8535 311.636 92.1814 312.167 93.7129L314.779 92.4777ZM300.9 91.5294L294.511 91.9044L294.863 91.7635C294.356 90.6313 293.297 88.9705 292.376 87.6221L289.75 88.6177C290.41 89.6208 291.171 90.9785 291.716 92.0685L283.53 92.5489L283.687 95.2243L301.057 94.2048L300.9 91.5294ZM292.278 102.333C291.628 101.49 290.402 100.4 289.225 99.4671C289.519 98.328 289.77 97.1512 289.977 95.8969L287.475 95.603C286.904 99.5232 285.638 103.204 283.542 105.731C284.162 106.055 285.214 106.915 285.6 107.333C286.833 105.818 287.801 103.878 288.555 101.71C289.448 102.579 290.298 103.411 290.819 104.102L292.278 102.333ZM288.368 114.223C287.752 116.703 286.66 119.251 285.166 121.102C285.821 121.344 286.937 121.92 287.479 122.289C288.926 120.32 290.197 117.401 290.914 114.594L288.368 114.223ZM296.751 114.372C298.153 116.413 299.759 119.204 300.466 121.005L302.764 119.869C302.019 118.109 300.38 115.441 298.94 113.442L296.751 114.372ZM294.857 105.988L293.499 106.068C294.507 104.807 295.378 103.273 296.041 101.591C297.363 102.956 298.695 104.481 299.399 105.561L301.15 103.976C300.234 102.708 298.439 100.809 296.873 99.3788C297.204 98.1974 297.491 96.9384 297.735 95.6419L295.194 95.3503C294.644 98.9487 293.323 102.392 291.256 104.717C291.796 105.046 292.632 105.638 293.14 106.089L292.062 106.152L292.226 108.948L284.319 109.412L284.474 112.047L292.38 111.583L293.112 124.042L295.907 123.878L295.175 111.419L302.283 111.002L302.129 108.366L295.021 108.784L294.857 105.988ZM306.931 113.053L312.162 112.746L312.486 118.256L307.255 118.563L306.931 113.053ZM311.541 102.164L306.31 102.471L305.999 97.1603L311.23 96.8532L311.541 102.164ZM312.01 110.15L306.779 110.457L306.46 105.027L311.691 104.72L312.01 110.15ZM320.871 117.764L315.161 118.099L314.838 112.589L319.949 112.289L319.797 109.693L314.685 109.993L314.367 104.563L319.438 104.265L319.288 101.709L314.217 102.007L313.905 96.6962L319.415 96.3728L319.256 93.6574L306.238 94.4215C306.988 92.1737 307.651 89.8109 308.114 87.4597L305.363 87.0201C304.28 92.4529 302.283 98.0195 299.734 101.695C300.396 102.057 301.57 102.95 302.08 103.441C302.594 102.649 303.027 101.822 303.497 100.953L304.816 123.435L307.531 123.275L307.414 121.279L321.031 120.48L320.871 117.764ZM357.611 91.0856L357.454 88.4102L331.659 89.9243C332.462 88.5949 333.181 87.1904 333.78 85.7929L331.096 85.109C329.409 89.1348 326.437 93.1158 323.223 95.7085C323.855 96.2324 324.844 97.3764 325.196 97.9167C326.833 96.4583 328.412 94.6827 329.819 92.7169L357.611 91.0856ZM328.859 122.104C330.213 119.901 331.575 116.495 332.421 113.841L329.584 113.286C328.738 115.94 327.284 119.151 325.999 121.15L328.859 122.104ZM336.318 114.013C336.938 116.38 337.478 119.434 337.586 121.271L340.475 120.661C340.329 118.866 339.714 115.897 339.059 113.611L336.318 114.013ZM344.539 113.45C345.676 115.747 346.895 118.761 347.364 120.617L350.244 119.847C349.734 117.993 348.478 115.022 347.226 112.811L344.539 113.45ZM352.756 112.807C354.339 115.199 356.33 118.408 357.206 120.36L360.008 118.953C359.015 117.048 356.986 113.881 355.368 111.572L352.756 112.807ZM333.045 101.944L337.198 101.7L337.597 108.488L333.444 108.732L333.045 101.944ZM344.386 101.278L344.784 108.066L340.152 108.338L339.754 101.55L344.386 101.278ZM351.334 100.87L351.732 107.659L347.34 107.916L346.941 101.128L351.334 100.87ZM354.488 107.497L354.089 100.708L358.601 100.444L358.444 97.7682L353.932 98.0331L353.672 93.6007L350.917 93.7624L351.177 98.1948L346.784 98.4526L346.524 94.0203L343.969 94.1703L344.229 98.6026L339.597 98.8745L339.337 94.4422L336.781 94.5922L337.041 99.0245L332.888 99.2683L332.628 94.8359L329.953 94.993L330.213 99.4253L325.421 99.7066L325.578 102.382L330.37 102.101L330.768 108.889L324.659 109.248L324.816 111.923L359.955 109.86L359.798 107.185L354.488 107.497ZM386.554 92.6724C385.532 91.6505 383.602 90.1611 381.89 88.9793C382.458 87.0627 382.935 84.9511 383.248 82.7691L380.347 82.4986C379.583 88.5938 377.527 93.8433 373.966 97.338C374.668 97.6975 375.849 98.71 376.319 99.2033C378.281 97.1248 379.848 94.4684 381.032 91.4338C382.624 92.6226 384.311 94.0462 385.25 95.0328L386.554 92.6724ZM370.644 83.0681C369.051 85.9665 365.739 89.6068 362.746 91.866C363.295 92.3547 364.115 93.3484 364.55 93.9239C367.763 91.3311 371.261 87.4395 373.418 83.907L370.644 83.0681ZM372.076 91.078C369.966 95.4091 366.416 99.7846 362.939 102.673C363.456 103.284 364.457 104.628 364.771 105.21C366.218 103.923 367.649 102.357 369.033 100.673L370.153 119.76L372.908 119.598L371.598 97.2766C372.815 95.4823 373.87 93.6573 374.765 91.8417L372.076 91.078ZM389.627 106.797L398.492 106.276L398.344 103.761L389.479 104.281L389.085 97.5725L387.528 97.6639C389.309 95.9165 390.747 93.7886 391.799 91.2426C394.202 93.2653 396.788 95.6779 398.169 97.3599L400.086 95.2038C398.538 93.4114 395.414 90.7098 392.69 88.666C393.294 86.6671 393.684 84.4405 393.905 82.0634L391.049 81.8704C390.536 88.1513 388.583 93.1142 384.724 96.3059C385.302 96.5925 386.22 97.2198 386.849 97.7037L386.33 97.7342L387.31 114.425C384.724 113.375 382.711 111.169 381.265 107.007C381.479 105.191 381.604 103.221 381.599 101.097L378.752 101.064C378.78 108.355 377.698 113.828 373.822 117.421C374.487 117.823 375.743 118.751 376.171 119.206C378.288 117.039 379.655 114.394 380.473 111.261C383.455 117.016 387.692 118.21 393.642 117.86L400.271 117.471C400.306 116.708 400.67 115.404 401.032 114.742L393.645 115.176C392.407 115.248 391.204 115.239 390.114 115.102L389.627 106.797ZM438.712 84.9629L438.538 82.008L403.279 84.0776L403.453 87.0325L418.706 86.1372L420.497 116.645L423.652 116.459L422.419 95.4556C427.114 97.6243 432.657 100.585 435.503 102.661L437.423 99.864C434.128 97.6533 427.647 94.4275 422.762 92.4303L422.278 93.0598L421.861 85.952L438.712 84.9629ZM479.783 97.2574L463.411 98.2184L463.031 91.7496L477.167 90.9198L477.001 88.0847L462.865 88.9144L462.485 82.4456C467.164 81.61 471.472 80.5958 474.805 79.3583L472.431 77.1337C466.552 79.362 455.032 81.0799 445.634 82.0723C445.954 82.7347 446.381 83.8716 446.548 84.6632C450.649 84.2222 455.145 83.6778 459.509 82.9408L459.87 89.0902L446.134 89.8965L446.3 92.7316L460.036 91.9253L460.416 98.3942L444.004 99.3575L444.176 102.273L460.587 101.309L461.105 110.134C461.154 110.973 460.812 111.273 459.933 111.325C459.017 111.419 455.905 111.641 452.543 111.718C453.069 112.489 453.706 113.774 453.995 114.598C458.19 114.392 460.741 114.162 462.19 113.596C463.639 113.03 464.227 112.115 464.102 109.998L463.582 101.133L479.954 100.172L479.783 97.2574ZM499.776 99.2894L503.051 99.0972C501.621 93.1708 511.092 91.3728 510.738 85.3431C510.468 80.751 506.706 78.0869 501.075 78.4174C496.723 78.6729 493.716 80.6926 491.245 83.6424L493.518 85.5124C495.611 82.9454 498.137 81.5951 500.852 81.4357C504.925 81.1966 507.039 83.076 507.2 85.8313C507.468 90.3834 498.149 92.7335 499.776 99.2894ZM498.653 106.087C498.765 108.004 500.315 109.155 502.072 109.052C503.829 108.949 505.194 107.626 505.082 105.71C504.969 103.793 503.461 102.679 501.704 102.782C499.947 102.886 498.54 104.17 498.653 106.087Z" fill="#06102B"/>
<defs>
<filter id="filter0_d_111_35597" x="0.211426" y="21.3347" width="559.872" height="222.267" filterUnits="userSpaceOnUse" color-interpolation-filters="sRGB">
<feFlood flood-opacity="0" result="BackgroundImageFix"/>
<feColorMatrix in="SourceAlpha" type="matrix" values="0 0 0 0 0 0 0 0 0 0 0 0 0 0 0 0 0 0 127 0" result="hardAlpha"/>
<feOffset/>
<feGaussianBlur stdDeviation="5"/>
<feComposite in2="hardAlpha" operator="out"/>
<feColorMatrix type="matrix" values="0 0 0 0 0.615686 0 0 0 0 0.643137 0 0 0 0 1 0 0 0 0.6 0"/>
<feBlend mode="normal" in2="BackgroundImageFix" result="effect1_dropShadow_111_35597"/>
<feBlend mode="normal" in="SourceGraphic" in2="effect1_dropShadow_111_35597" result="shape"/>
</filter>
</defs>
</svg>
