<svg width="253" height="206" viewBox="0 0 253 206" fill="none" xmlns="http://www.w3.org/2000/svg">
<g filter="url(#filter0_d_2977_21966)">
<path d="M220.821 168.561C218.439 167.344 215.929 169.961 217.243 172.29L220.468 178.007C221.814 180.395 221.845 183.305 220.549 185.72L217.331 191.717C216.046 194.113 218.709 196.691 221.061 195.328L241.215 183.657C243.065 182.586 242.994 179.891 241.09 178.919L220.821 168.561Z" fill="white"/>
</g>
<circle cx="3.61011" cy="3" r="3" fill="white"/>
<circle cx="21.6101" cy="3" r="3" fill="white"/>
<circle cx="39.6101" cy="3" r="3" fill="white"/>
<circle cx="57.6101" cy="183" r="3" fill="white"/>
<circle cx="75.6101" cy="183" r="3" fill="white"/>
<circle cx="93.6101" cy="183" r="3" fill="white"/>
<circle cx="111.61" cy="183" r="3" fill="white"/>
<circle cx="129.61" cy="183" r="3" fill="white"/>
<circle cx="147.61" cy="183" r="3" fill="white"/>
<circle cx="165.61" cy="183" r="3" fill="white"/>
<circle cx="183.61" cy="183" r="3" fill="white"/>
<circle cx="201.61" cy="183" r="3" fill="white"/>
<circle cx="57.6101" cy="3" r="3" fill="white"/>
<circle cx="57.6101" cy="21" r="3" fill="white"/>
<circle cx="57.6101" cy="39" r="3" fill="white"/>
<circle cx="57.6101" cy="57" r="3" fill="white"/>
<circle cx="57.6101" cy="75" r="3" fill="white"/>
<circle cx="57.6101" cy="93" r="3" fill="white"/>
<circle cx="57.6101" cy="111" r="3" fill="white"/>
<circle cx="57.6101" cy="129" r="3" fill="white"/>
<circle cx="57.6101" cy="147" r="3" fill="white"/>
<circle cx="57.6101" cy="165" r="3" fill="white"/>
<defs>
<filter id="filter0_d_2977_21966" x="206.881" y="158.252" width="45.6804" height="47.4541" filterUnits="userSpaceOnUse" color-interpolation-filters="sRGB">
<feFlood flood-opacity="0" result="BackgroundImageFix"/>
<feColorMatrix in="SourceAlpha" type="matrix" values="0 0 0 0 0 0 0 0 0 0 0 0 0 0 0 0 0 0 127 0" result="hardAlpha"/>
<feOffset/>
<feGaussianBlur stdDeviation="5"/>
<feComposite in2="hardAlpha" operator="out"/>
<feColorMatrix type="matrix" values="0 0 0 0 1 0 0 0 0 1 0 0 0 0 1 0 0 0 0.6 0"/>
<feBlend mode="normal" in2="BackgroundImageFix" result="effect1_dropShadow_2977_21966"/>
<feBlend mode="normal" in="SourceGraphic" in2="effect1_dropShadow_2977_21966" result="shape"/>
</filter>
</defs>
</svg>
