<svg width="26" height="26" viewBox="0 0 26 26" fill="none" xmlns="http://www.w3.org/2000/svg">
<path d="M12.2504 1.106C12.5247 0.364713 13.5731 0.364713 13.8474 1.106L16.7075 8.83525C16.7938 9.06831 16.9775 9.25206 17.2106 9.3383L24.9398 12.1984C25.6811 12.4727 25.6811 13.5211 24.9398 13.7954L17.2106 16.6555C16.9775 16.7418 16.7938 16.9255 16.7075 17.1586L13.8474 24.8878C13.5731 25.6291 12.5247 25.6291 12.2504 24.8878L9.3903 17.1586C9.30406 16.9255 9.12031 16.7418 8.88725 16.6555L1.158 13.7954C0.416715 13.5211 0.416715 12.4727 1.158 12.1984L8.88725 9.3383C9.12031 9.25206 9.30406 9.06831 9.3903 8.83525L12.2504 1.106Z" fill="url(#paint0_linear_111_35571)"/>
<defs>
<linearGradient id="paint0_linear_111_35571" x1="13.0489" y1="-1.052" x2="13.0489" y2="27.0458" gradientUnits="userSpaceOnUse">
<stop stop-color="#9FA6FF"/>
<stop offset="1" stop-color="#55FFAD"/>
</linearGradient>
</defs>
</svg>
