<svg width="61" height="59" viewBox="0 0 61 59" fill="none" xmlns="http://www.w3.org/2000/svg">
<path d="M29.5364 1.80059C29.9358 1.25315 30.7526 1.25315 31.1521 1.80059L36.394 8.98498C37.1122 9.96933 38.3545 10.4215 39.5374 10.1291L48.171 7.99498C48.8289 7.83236 49.4546 8.35738 49.4087 9.0335L48.8062 17.9065C48.7236 19.1222 49.3846 20.2671 50.4787 20.8035L58.4642 24.7182C59.0727 25.0165 59.2146 25.8209 58.7448 26.3093L52.5798 32.7192C51.7351 33.5974 51.5056 34.8993 51.9989 36.0135L55.5998 44.1453C55.8742 44.765 55.4658 45.4723 54.792 45.5445L45.9492 46.492C44.7376 46.6218 43.7249 47.4716 43.3867 48.6422L40.918 57.1862C40.7299 57.8372 39.9624 58.1166 39.3998 57.7388L32.0168 52.7805C31.0052 52.1011 29.6832 52.1011 28.6717 52.7805L21.2887 57.7388C20.7261 58.1166 19.9585 57.8372 19.7704 57.1862L17.3018 48.6422C16.9636 47.4716 15.9509 46.6218 14.7393 46.492L5.89648 45.5445C5.22267 45.4723 4.81427 44.765 5.08866 44.1453L8.68955 36.0135C9.18291 34.8993 8.95335 33.5974 8.10867 32.7192L1.94369 26.3093C1.47392 25.8209 1.61576 25.0165 2.22425 24.7182L10.2097 20.8035C11.3038 20.2671 11.9648 19.1222 11.8823 17.9065L11.2798 9.0335C11.2339 8.35738 11.8596 7.83236 12.5175 7.99498L21.1511 10.1291C22.334 10.4215 23.5763 9.96933 24.2945 8.98498L29.5364 1.80059Z" stroke="white" stroke-width="2"/>
</svg>
