<svg width="716" height="145" viewBox="0 0 716 145" fill="none" xmlns="http://www.w3.org/2000/svg">
<path d="M596.059 52.2571H585.867L588.883 40.1931H557.631L560.127 30.2091L570.319 18.1451H582.123L571.931 30.2091H591.379L594.395 18.1451H604.587L596.059 52.2571ZM631.686 28.0771H616.242L618.738 18.1451H659.766L657.27 28.0771H641.826L635.794 52.2571H625.654L631.686 28.0771ZM706.843 52.2571H696.651L699.667 40.2451H678.607L675.591 52.2571H665.399L673.927 18.1451H684.119L681.051 30.2611H702.111L705.179 18.1451H715.371L706.843 52.2571Z" fill="#9FA6FF"/>
<path d="M592.43 47H582.238L585.254 34.936H554.002L556.498 24.952L566.69 12.888H578.494L568.302 24.952H587.75L590.766 12.888H600.958L592.43 47ZM628.058 22.82H612.614L615.11 12.888H656.138L653.642 22.82H638.198L632.166 47H622.026L628.058 22.82ZM703.215 47H693.023L696.039 34.988H674.979L671.963 47H661.771L670.299 12.888H680.491L677.423 25.004H698.483L701.551 12.888H711.743L703.215 47Z" fill="#55FFAD"/>
<path d="M593.116 49.6287H582.924L585.94 37.5647H554.688L557.184 27.5807L567.376 15.5167H579.18L568.988 27.5807H588.436L591.452 15.5167H601.644L593.116 49.6287ZM628.743 25.4487H613.299L615.795 15.5167H656.823L654.327 25.4487H638.883L632.851 49.6287H622.711L628.743 25.4487ZM703.9 49.6287H693.708L696.724 37.6167H675.664L672.648 49.6287H662.456L670.984 15.5167H681.176L678.108 27.6327H699.168L702.236 15.5167H712.428L703.9 49.6287Z" fill="white"/>
<g filter="url(#filter0_d_99_5413)">
<path d="M80.64 64.3713H11.84V76.4513H39.04V120.371H53.44V76.4513H80.64V64.3713ZM161.374 64.3713V86.2913H115.774V64.3713H101.374V120.371H115.774V98.4513H161.374V120.371H175.774V64.3713H161.374ZM257.356 75.8113V64.3713H198.156V120.371H257.356V108.931H212.556V97.5713H257.356V87.1713H212.556V75.8113H257.356ZM391.231 76.4513V64.3713H332.031V120.371H346.431V102.851H386.431V90.6913H346.431V76.4513H391.231ZM476.063 81.1713C476.063 67.2513 464.783 63.5713 445.503 63.5713C426.943 63.5713 413.823 67.7313 413.823 86.3713H428.223C428.223 77.4913 433.903 75.6513 446.303 75.6513C458.703 75.6513 461.663 77.6513 461.663 82.2913C461.663 95.0113 412.543 89.8113 412.543 113.091V120.371H475.263V108.291H432.703C436.223 97.1713 476.063 102.851 476.063 81.1713ZM557.371 75.8113V64.3713H498.171V120.371H557.371V108.931H512.571V97.5713H557.371V87.1713H512.571V75.8113H557.371Z" fill="#9DA4FF"/>
</g>
<path d="M71.44 56.4856H2.64V68.5656H29.84V112.486H44.24V68.5656H71.44V56.4856ZM152.174 56.4856V78.4056H106.574V56.4856H92.1744V112.486H106.574V90.5656H152.174V112.486H166.574V56.4856H152.174ZM248.156 67.9256V56.4856H188.956V112.486H248.156V101.046H203.356V89.6856H248.156V79.2856H203.356V67.9256H248.156ZM382.031 68.5656V56.4856H322.831V112.486H337.231V94.9656H377.231V82.8056H337.231V68.5656H382.031ZM466.863 73.2856C466.863 59.3656 455.583 55.6856 436.303 55.6856C417.743 55.6856 404.623 59.8456 404.623 78.4856H419.023C419.023 69.6056 424.703 67.7656 437.103 67.7656C449.503 67.7656 452.463 69.7656 452.463 74.4056C452.463 87.1256 403.343 81.9256 403.343 105.206V112.486H466.063V100.406H423.503C427.023 89.2856 466.863 94.9656 466.863 73.2856ZM548.171 67.9256V56.4856H488.971V112.486H548.171V101.046H503.371V89.6856H548.171V79.2856H503.371V67.9256H548.171Z" fill="#55FFAD"/>
<path d="M74.0687 60.4285H5.26866V72.5085H32.4687V116.428H46.8687V72.5085H74.0687V60.4285ZM154.803 60.4285V82.3485H109.203V60.4285H94.803V116.428H109.203V94.5085H154.803V116.428H169.203V60.4285H154.803ZM250.784 71.8685V60.4285H191.584V116.428H250.784V104.988H205.984V93.6285H250.784V83.2285H205.984V71.8685H250.784ZM384.659 72.5085V60.4285H325.459V116.428H339.859V98.9085H379.859V86.7485H339.859V72.5085H384.659ZM469.492 77.2285C469.492 63.3085 458.212 59.6285 438.932 59.6285C420.372 59.6285 407.252 63.7885 407.252 82.4285H421.652C421.652 73.5485 427.332 71.7085 439.732 71.7085C452.132 71.7085 455.092 73.7085 455.092 78.3485C455.092 91.0685 405.972 85.8685 405.972 109.148V116.428H468.692V104.348H426.132C429.652 93.2285 469.492 98.9085 469.492 77.2285ZM550.8 71.8685V60.4285H491.6V116.428H550.8V104.988H506V93.6285H550.8V83.2285H506V71.8685H550.8Z" fill="white"/>
<defs>
<filter id="filter0_d_99_5413" x="1.83984" y="53.5713" width="565.531" height="76.8" filterUnits="userSpaceOnUse" color-interpolation-filters="sRGB">
<feFlood flood-opacity="0" result="BackgroundImageFix"/>
<feColorMatrix in="SourceAlpha" type="matrix" values="0 0 0 0 0 0 0 0 0 0 0 0 0 0 0 0 0 0 127 0" result="hardAlpha"/>
<feOffset/>
<feGaussianBlur stdDeviation="5"/>
<feComposite in2="hardAlpha" operator="out"/>
<feColorMatrix type="matrix" values="0 0 0 0 0.615686 0 0 0 0 0.643137 0 0 0 0 1 0 0 0 0.6 0"/>
<feBlend mode="normal" in2="BackgroundImageFix" result="effect1_dropShadow_99_5413"/>
<feBlend mode="normal" in="SourceGraphic" in2="effect1_dropShadow_99_5413" result="shape"/>
</filter>
</defs>
</svg>
