<svg width="42" height="86" viewBox="0 0 42 86" fill="none" xmlns="http://www.w3.org/2000/svg">
<mask id="path-1-inside-1_111_35624" fill="white">
<path fill-rule="evenodd" clip-rule="evenodd" d="M11.2108 13.9682C10.6964 18.0413 11.8369 21.942 14.1084 24.9947C15.1001 26.3275 14.6193 28.5966 13.1733 29.4145C9.11884 31.708 6.16112 35.8211 5.53256 40.7979C4.98982 45.0951 6.28921 49.2005 8.81529 52.3205C9.88845 53.646 9.46274 56.0603 8.00173 56.9401C4.13304 59.2697 1.3312 63.2849 0.721422 68.113C-0.335231 76.4792 5.59036 84.118 13.9566 85.1747C22.3228 86.2313 29.9616 80.3057 31.0182 71.9395C31.561 67.6422 30.2616 63.5368 27.7355 60.4168C26.6624 59.0913 27.0881 56.677 28.5491 55.7972C32.4178 53.4676 35.2196 49.4524 35.8294 44.6243C36.3438 40.5512 35.2033 36.6505 32.9318 33.5978C31.9401 32.265 32.421 29.9959 33.8669 29.178C37.9214 26.8845 40.8791 22.7714 41.5077 17.7947C42.5643 9.42842 36.6387 1.78965 28.2725 0.733001C19.9062 -0.323652 12.2675 5.60194 11.2108 13.9682Z"/>
</mask>
<path d="M32.9318 33.5978L31.3273 34.7917L32.9318 33.5978ZM33.8669 29.178L32.8822 27.4372L33.8669 29.178ZM8.81529 52.3205L10.3697 51.062L8.81529 52.3205ZM8.00173 56.9401L6.97001 55.2268L8.00173 56.9401ZM13.1733 29.4145L12.1886 27.6737L13.1733 29.4145ZM15.7129 23.8008C13.7374 21.1459 12.7479 17.7592 13.1951 14.2188L9.2266 13.7176C8.64488 18.3234 9.93644 22.7382 12.5038 26.1886L15.7129 23.8008ZM7.5168 41.0485C8.06286 36.7249 10.6297 33.1512 14.158 31.1553L12.1886 27.6737C7.60801 30.2648 4.25939 34.9173 3.54832 40.5473L7.5168 41.0485ZM10.3697 51.062C8.17226 48.3479 7.04511 44.7831 7.5168 41.0485L3.54832 40.5473C2.93452 45.4071 4.40617 50.0531 7.26088 53.579L10.3697 51.062ZM2.70566 68.3636C3.23544 64.169 5.66692 60.6807 9.03345 58.6535L6.97001 55.2268C2.59915 57.8587 -0.573034 62.4009 -1.26282 67.8624L2.70566 68.3636ZM14.2072 83.1904C6.93683 82.2722 1.78741 75.634 2.70566 68.3636L-1.26282 67.8624C-2.45788 77.3245 4.24389 85.9638 13.706 87.1589L14.2072 83.1904ZM29.034 71.6889C28.1158 78.9593 21.4776 84.1087 14.2072 83.1904L13.706 87.1589C23.1681 88.354 31.8074 81.6522 33.0025 72.1901L29.034 71.6889ZM26.1811 61.6753C28.3786 64.3894 29.5057 67.9542 29.034 71.6889L33.0025 72.1901C33.6163 67.3302 32.1446 62.6843 29.2899 59.1583L26.1811 61.6753ZM33.8452 44.3737C33.3154 48.5684 30.8839 52.0567 27.5174 54.0839L29.5808 57.5106C33.9517 54.8786 37.1238 50.3364 37.8136 44.8749L33.8452 44.3737ZM31.3273 34.7917C33.3028 37.4466 34.2923 40.8333 33.8452 44.3737L37.8136 44.8749C38.3953 40.2691 37.1038 35.8543 34.5364 32.4039L31.3273 34.7917ZM39.5234 17.544C38.9774 21.8676 36.4105 25.4413 32.8822 27.4372L34.8516 30.9188C39.4322 28.3277 42.7808 23.6752 43.4919 18.0453L39.5234 17.544ZM28.0219 2.71724C35.2923 3.63548 40.4417 10.2737 39.5234 17.544L43.4919 18.0453C44.687 8.58316 37.9852 -0.0561759 28.5231 -1.25124L28.0219 2.71724ZM13.1951 14.2188C14.1133 6.94841 20.7515 1.79899 28.0219 2.71724L28.5231 -1.25124C19.061 -2.4463 10.4217 4.25546 9.2266 13.7176L13.1951 14.2188ZM34.5364 32.4039C34.4555 32.2952 34.3562 32.0137 34.4419 31.609C34.5276 31.2043 34.7326 30.9861 34.8516 30.9188L32.8822 27.4372C31.5552 28.1878 30.7969 29.5131 30.5286 30.7807C30.2603 32.0482 30.4165 33.5677 31.3273 34.7917L34.5364 32.4039ZM29.2899 59.1583C29.2034 59.0515 29.0808 58.7458 29.1617 58.2869C29.2425 57.8281 29.4623 57.5819 29.5808 57.5106L27.5174 54.0839C26.1748 54.8923 25.4513 56.2932 25.2223 57.5929C24.9934 58.8925 25.1945 60.4567 26.1811 61.6753L29.2899 59.1583ZM7.26088 53.579C7.34741 53.6859 7.47 53.9916 7.38916 54.4504C7.30832 54.9093 7.08846 55.1554 6.97001 55.2268L9.03345 58.6535C10.376 57.845 11.0995 56.4441 11.3285 55.1445C11.5575 53.8449 11.3563 52.2806 10.3697 51.062L7.26088 53.579ZM12.5038 26.1886C12.5847 26.2973 12.684 26.5789 12.5983 26.9835C12.5127 27.3882 12.3076 27.6064 12.1886 27.6737L14.158 31.1553C15.485 30.4047 16.2433 29.0794 16.5116 27.8119C16.7799 26.5443 16.6237 25.0248 15.7129 23.8008L12.5038 26.1886Z" fill="white" mask="url(#path-1-inside-1_111_35624)"/>
</svg>
